<svg xmlns="http://www.w3.org/2000/svg" xmlns:v="https://svgstorm.com"
viewBox = "0 0 512 512"
width="512"
height="512">
<g fill="None" fill-opacity="0.0" stroke="#000000" stroke-opacity="0.00" stroke-width="0.3"><path d="
M 0.00 512.00 
L 512.00 512.00
L 512.00 0.00
L 0.00 0.00
L 0.00 512.00
M 480.00 53.00 
C 480.26 53.24 480.00 55.61 480.00 56.00
C 480.00 126.67 480.00 197.33 480.00 268.00
C 481.62 284.77 481.10 303.49 481.00 321.00 C 480.90 338.51 481.44 358.77 481.00 376.00 C 480.56 393.23 484.68 412.24 482.00 429.00 C 479.32 445.76 488.35 467.41 479.74 481.74 C 471.14 496.08 448.50 487.16 433.00 489.00 C 417.50 490.84 394.96 488.14 378.00 489.00 C 361.04 489.86 341.66 488.60 324.00 489.00 C 306.34 489.40 286.99 488.76 269.00 489.00 C 251.01 489.24 233.23 488.78 215.00 489.00 C 196.77 489.22 178.48 488.64 160.00 489.00 C 141.52 489.36 124.97 488.25 106.00 489.00 C 87.03 489.75 70.94 487.40 51.00 489.00 C 31.06 490.60 27.56 474.98 29.00 457.00 C 30.44 439.02 29.39 421.03 30.00 403.00 C 30.61 384.97 29.99 367.09 30.00 349.00 C 30.01 330.91 30.25 312.86 31.00 295.00 C 31.75 277.14 30.64 258.90 31.00 241.00 C 31.36 223.10 30.35 204.10 32.00 187.00
C 32.00 143.33 32.00 99.67 32.00 56.00
C 32.00 55.61 31.74 53.24 32.00 53.00
C 33.57 49.24 39.30 45.01 42.25 42.25 C 45.19 39.48 49.19 33.14 53.00 32.00
C 65.34 28.31 80.00 33.62 93.00 32.00 C 106.00 30.38 120.72 32.75 134.00 32.00 C 147.28 31.25 160.57 32.32 174.00 32.00 C 187.43 31.68 201.49 32.12 215.00 32.00 C 228.51 31.88 242.50 32.00 256.00 32.00 C 269.50 32.00 282.53 31.87 296.00 32.00 C 309.47 32.13 323.58 31.67 337.00 32.00 C 350.42 32.33 363.68 31.22 377.00 32.00 C 390.32 32.78 404.90 30.30 418.00 32.00 C 431.10 33.70 446.50 28.26 459.00 32.00
C 462.86 33.16 466.80 39.50 469.75 42.25 C 472.71 45.00 478.46 49.30 480.00 53.00 Z"/>
</g>
<g fill="None" fill-opacity="0.0" stroke="#8A8A8A" stroke-opacity="0.29" stroke-width="0.3"><path d="
M 32.00 53.00 
C 32.27 52.75 33.00 53.00 33.00 53.00
C 35.46 49.48 39.07 46.93 42.00 44.00
C 44.75 41.25 49.55 33.27 53.00 32.00
C 49.19 33.14 45.19 39.48 42.25 42.25 C 39.30 45.01 33.57 49.24 32.00 53.00 Z"/>
</g>
<g fill="None" fill-opacity="0.0" stroke="#848484" stroke-opacity="1.00" stroke-width="0.3"><path d="
M 42.00 44.00 
C 55.64 37.69 71.84 44.11 87.00 42.00 C 102.16 39.89 119.29 40.87 135.00 40.00 C 150.71 39.13 166.97 39.10 183.00 39.00 C 199.03 38.90 216.02 38.23 232.00 38.00 C 247.98 37.77 265.09 37.41 281.00 38.00 C 296.91 38.59 314.12 38.57 330.00 39.00 C 345.88 39.43 361.49 39.84 377.02 40.98 C 392.56 42.11 411.29 39.04 426.00 42.00 C 440.71 44.96 458.47 37.00 471.00 45.00
C 468.00 42.00 462.78 33.39 459.00 32.00
C 446.50 28.26 431.10 33.70 418.00 32.00 C 404.90 30.30 390.32 32.78 377.00 32.00 C 363.68 31.22 350.42 32.33 337.00 32.00 C 323.58 31.67 309.47 32.13 296.00 32.00 C 282.53 31.87 269.50 32.00 256.00 32.00 C 242.50 32.00 228.51 31.88 215.00 32.00 C 201.49 32.12 187.43 31.68 174.00 32.00 C 160.57 32.32 147.28 31.25 134.00 32.00 C 120.72 32.75 106.00 30.38 93.00 32.00 C 80.00 33.62 65.34 28.31 53.00 32.00
C 49.55 33.27 44.75 41.25 42.00 44.00 Z"/>
</g>
<g fill="None" fill-opacity="0.0" stroke="#8A8A8A" stroke-opacity="0.29" stroke-width="0.3"><path d="
M 471.00 45.00 
C 473.67 47.67 476.82 49.89 479.00 53.00
C 479.25 53.25 480.00 53.00 480.00 53.00
C 478.46 49.30 472.71 45.00 469.75 42.25 C 466.80 39.50 462.86 33.16 459.00 32.00
C 462.78 33.39 468.00 42.00 471.00 45.00 Z"/>
</g>
<g fill="None" fill-opacity="0.0" stroke="#A0A0A0" stroke-opacity="1.00" stroke-width="0.3"><path d="
M 42.00 44.00 
C 39.07 46.93 35.46 49.48 33.00 53.00
C 41.89 46.21 55.42 50.11 67.00 49.00 C 78.58 47.89 91.50 49.26 103.02 48.02 C 114.54 46.79 127.45 48.53 139.00 47.00 C 150.56 45.47 164.91 48.24 177.00 47.00 C 189.09 45.76 202.35 45.96 215.00 46.00 C 227.65 46.04 241.29 46.01 254.00 46.00 C 266.71 45.99 279.31 46.08 292.00 46.00 C 304.69 45.92 317.70 45.76 330.01 46.99 C 342.31 48.22 356.24 45.54 368.07 47.93 C 379.90 50.31 394.64 45.29 406.00 48.00 C 417.36 50.71 433.40 46.33 444.00 49.00 C 454.60 51.67 471.46 45.31 479.00 53.00
C 476.82 49.89 473.67 47.67 471.00 45.00
C 458.47 37.00 440.71 44.96 426.00 42.00 C 411.29 39.04 392.56 42.11 377.02 40.98 C 361.49 39.84 345.88 39.43 330.00 39.00 C 314.12 38.57 296.91 38.59 281.00 38.00 C 265.09 37.41 247.98 37.77 232.00 38.00 C 216.02 38.23 199.03 38.90 183.00 39.00 C 166.97 39.10 150.71 39.13 135.00 40.00 C 119.29 40.87 102.16 39.89 87.00 42.00 C 71.84 44.11 55.64 37.69 42.00 44.00 Z"/>
</g>
<g fill="None" fill-opacity="0.0" stroke="#BABABA" stroke-opacity="1.00" stroke-width="0.3"><path d="
M 33.00 53.00 
C 33.00 53.00 32.27 52.75 32.00 53.00
C 31.74 53.24 32.00 55.61 32.00 56.00
C 35.31 55.78 38.69 56.30 42.00 56.00
C 41.96 56.00 42.00 55.00 42.00 55.00
C 42.65 50.57 55.87 53.70 61.00 53.00 C 66.13 52.30 75.71 53.33 82.00 53.00 C 88.29 52.67 97.25 53.22 104.00 53.00 C 110.75 52.78 118.03 53.24 125.00 53.00 C 131.97 52.76 139.97 53.41 147.00 53.00 C 154.03 52.59 161.02 53.89 168.00 53.00 C 174.98 52.11 183.22 53.99 188.00 55.00
C 202.45 58.05 219.15 54.19 234.00 55.00 C 248.85 55.81 265.09 55.90 280.00 55.00 C 294.91 54.10 312.40 58.08 327.00 55.00
C 331.40 54.07 338.31 52.16 345.00 53.00 C 351.69 53.84 359.21 52.60 366.00 53.00 C 372.79 53.40 380.23 52.77 387.00 53.00 C 393.77 53.23 401.42 52.78 408.00 53.00 C 414.58 53.22 422.88 52.65 429.00 53.00 C 435.12 53.35 444.93 52.28 450.00 53.00 C 455.07 53.72 468.34 50.53 469.00 55.00
C 469.07 55.49 469.00 56.00 469.00 56.00
C 472.64 56.33 476.36 55.75 480.00 56.00
C 480.00 55.61 480.26 53.24 480.00 53.00
C 480.00 53.00 479.25 53.25 479.00 53.00
C 471.46 45.31 454.60 51.67 444.00 49.00 C 433.40 46.33 417.36 50.71 406.00 48.00 C 394.64 45.29 379.90 50.31 368.07 47.93 C 356.24 45.54 342.31 48.22 330.01 46.99 C 317.70 45.76 304.69 45.92 292.00 46.00 C 279.31 46.08 266.71 45.99 254.00 46.00 C 241.29 46.01 227.65 46.04 215.00 46.00 C 202.35 45.96 189.09 45.76 177.00 47.00 C 164.91 48.24 150.56 45.47 139.00 47.00 C 127.45 48.53 114.54 46.79 103.02 48.02 C 91.50 49.26 78.58 47.89 67.00 49.00 C 55.42 50.11 41.89 46.21 33.00 53.00 Z"/>
</g>
<g fill="None" fill-opacity="0.0" stroke="#EDB0AA" stroke-opacity="1.00" stroke-width="0.3"><path d="
M 42.00 55.00 
C 90.27 50.63 139.63 58.27 188.00 55.00
C 183.22 53.99 174.98 52.11 168.00 53.00 C 161.02 53.89 154.03 52.59 147.00 53.00 C 139.97 53.41 131.97 52.76 125.00 53.00 C 118.03 53.24 110.75 52.78 104.00 53.00 C 97.25 53.22 88.29 52.67 82.00 53.00 C 75.71 53.33 66.13 52.30 61.00 53.00 C 55.87 53.70 42.65 50.57 42.00 55.00 Z"/>
</g>
<g fill="None" fill-opacity="0.0" stroke="#AACDE4" stroke-opacity="1.00" stroke-width="0.3"><path d="
M 327.00 55.00 
C 374.05 58.18 422.05 50.76 469.00 55.00
C 468.34 50.53 455.07 53.72 450.00 53.00 C 444.93 52.28 435.12 53.35 429.00 53.00 C 422.88 52.65 414.58 53.22 408.00 53.00 C 401.42 52.78 393.77 53.23 387.00 53.00 C 380.23 52.77 372.79 53.40 366.00 53.00 C 359.21 52.60 351.69 53.84 345.00 53.00 C 338.31 52.16 331.40 54.07 327.00 55.00 Z"/>
</g>
<g fill="None" fill-opacity="0.0" stroke="#EC5546" stroke-opacity="1.00" stroke-width="0.3"><path d="
M 42.00 56.00 
C 66.14 58.18 90.81 54.36 115.00 56.00
C 91.39 98.36 86.13 153.88 106.00 199.00
C 104.12 199.47 101.07 197.94 100.00 200.00
C 112.00 200.00 124.00 200.00 136.00 200.00
C 145.00 200.00 154.00 200.00 163.00 200.00
C 171.33 200.00 179.67 200.00 188.00 200.00
C 188.00 151.67 188.00 103.33 188.00 55.00
C 139.63 58.27 90.27 50.63 42.00 55.00
C 42.00 55.00 41.96 56.00 42.00 56.00 Z"/>
</g>
<g fill="None" fill-opacity="0.0" stroke="#918780" stroke-opacity="1.00" stroke-width="0.3"><path d="
M 163.00 200.00 
C 168.09 202.33 169.62 212.40 175.25 215.75 C 180.88 219.10 184.26 225.33 190.25 228.75 C 196.24 232.18 201.36 235.90 208.08 238.92 C 214.79 241.95 222.13 244.40 229.67 246.33 C 237.21 248.26 246.66 249.10 255.00 249.00 C 263.34 248.90 273.05 248.59 280.67 246.67 C 288.29 244.76 295.35 242.05 302.22 239.22 C 309.10 236.40 314.00 232.43 320.08 229.08 C 326.16 225.73 329.51 219.56 335.25 216.25 C 340.99 212.94 342.87 202.34 348.00 200.00
C 341.00 200.00 334.00 200.00 327.00 200.00
C 327.00 151.67 327.00 103.33 327.00 55.00
C 312.40 58.08 294.91 54.10 280.00 55.00 C 265.09 55.90 248.85 55.81 234.00 55.00 C 219.15 54.19 202.45 58.05 188.00 55.00
C 188.00 103.33 188.00 151.67 188.00 200.00
C 179.67 200.00 171.33 200.00 163.00 200.00
M 258.00 94.00 
C 272.11 110.26 290.09 124.27 303.00 141.00
C 272.33 141.00 241.67 141.00 211.00 141.00
C 224.86 124.64 241.67 107.84 258.00 94.00 Z"/>
</g>
<g fill="None" fill-opacity="0.0" stroke="#499FD6" stroke-opacity="1.00" stroke-width="0.3"><path d="
M 348.00 200.00 
C 352.00 200.00 356.00 200.00 360.00 200.00
C 366.58 199.36 374.70 198.40 382.00 199.00
C 403.45 153.70 399.01 97.02 370.00 56.00
C 403.00 56.00 436.00 56.00 469.00 56.00
C 469.00 56.00 469.07 55.49 469.00 55.00
C 422.05 50.76 374.05 58.18 327.00 55.00
C 327.00 103.33 327.00 151.67 327.00 200.00
C 334.00 200.00 341.00 200.00 348.00 200.00 Z"/>
</g>
<g fill="None" fill-opacity="0.0" stroke="#888888" stroke-opacity="1.00" stroke-width="0.3"><path d="
M 32.00 187.00 
C 32.00 284.67 32.00 382.33 32.00 480.00
C 33.00 480.00 34.00 480.00 35.00 480.00
C 37.11 480.62 39.82 479.70 42.00 480.00
C 42.00 433.34 42.00 386.67 42.00 340.00
C 42.00 339.50 42.00 339.00 42.00 339.00
C 42.00 292.67 42.00 246.33 42.00 200.00
C 42.00 152.00 42.00 104.00 42.00 56.00
C 38.69 56.30 35.31 55.78 32.00 56.00
C 32.00 99.67 32.00 143.33 32.00 187.00 Z"/>
</g>
<g fill="None" fill-opacity="0.0" stroke="#EA3D2C" stroke-opacity="1.00" stroke-width="0.3"><path d="
M 42.00 200.00 
C 50.00 200.00 58.00 200.00 66.00 200.00
C 77.33 200.00 88.67 200.00 100.00 200.00
C 101.07 197.94 104.12 199.47 106.00 199.00
C 86.13 153.88 91.39 98.36 115.00 56.00
C 90.81 54.36 66.14 58.18 42.00 56.00
C 42.00 104.00 42.00 152.00 42.00 200.00 Z"/>
</g>
<g fill="None" fill-opacity="0.0" stroke="#3092D1" stroke-opacity="1.00" stroke-width="0.3"><path d="
M 360.00 200.00 
C 365.00 200.00 370.00 200.00 375.00 200.00
C 396.33 200.00 417.67 200.00 439.00 200.00
C 449.00 200.00 459.00 200.00 469.00 200.00
C 469.00 152.00 469.00 104.00 469.00 56.00
C 436.00 56.00 403.00 56.00 370.00 56.00
C 399.01 97.02 403.45 153.70 382.00 199.00
C 374.70 198.40 366.58 199.36 360.00 200.00 Z"/>
</g>
<g fill="None" fill-opacity="0.0" stroke="#888888" stroke-opacity="1.00" stroke-width="0.3"><path d="
M 469.00 200.00 
C 469.00 246.33 468.95 292.67 469.00 339.00
C 469.00 339.50 469.00 340.00 469.00 340.00
C 469.00 363.24 468.20 386.79 469.00 410.00 C 469.80 433.21 466.88 456.90 469.00 480.00
C 469.50 480.00 470.00 480.00 470.00 480.00
C 472.04 480.00 475.05 480.57 477.00 480.00
C 477.47 479.50 479.42 480.40 480.00 480.00
C 480.00 409.33 480.00 338.67 480.00 268.00
C 480.00 197.33 480.00 126.67 480.00 56.00
C 476.36 55.75 472.64 56.33 469.00 56.00
C 469.00 104.00 469.00 152.00 469.00 200.00 Z"/>
</g>
<g fill="None" fill-opacity="0.0" stroke="#FBFBFB" stroke-opacity="1.00" stroke-width="0.3"><path d="
M 258.00 94.00 
C 241.67 107.84 224.86 124.64 211.00 141.00
C 241.67 141.00 272.33 141.00 303.00 141.00
C 290.09 124.27 272.11 110.26 258.00 94.00 Z"/>
</g>
<g fill="None" fill-opacity="0.0" stroke="#000000" stroke-opacity="0.06" stroke-width="0.3"><path d="
M 480.00 268.00 
C 480.00 338.67 480.00 409.33 480.00 480.00
C 479.42 480.40 477.47 479.50 477.00 480.00
C 463.78 494.02 438.19 483.67 419.00 486.00 C 399.81 488.33 374.48 485.03 354.00 486.00 C 333.52 486.97 309.97 485.73 289.00 486.00 C 268.03 486.27 244.99 486.25 224.00 486.00 C 203.01 485.75 179.57 486.95 159.00 486.00 C 138.43 485.05 113.42 488.28 94.00 486.00 C 74.58 483.72 48.91 493.77 35.00 480.00
C 34.00 480.00 33.00 480.00 32.00 480.00
C 32.00 382.33 32.00 284.67 32.00 187.00
C 30.35 204.10 31.36 223.10 31.00 241.00 C 30.64 258.90 31.75 277.14 31.00 295.00 C 30.25 312.86 30.01 330.91 30.00 349.00 C 29.99 367.09 30.61 384.97 30.00 403.00 C 29.39 421.03 30.44 439.02 29.00 457.00 C 27.56 474.98 31.06 490.60 51.00 489.00 C 70.94 487.40 87.03 489.75 106.00 489.00 C 124.97 488.25 141.52 489.36 160.00 489.00 C 178.48 488.64 196.77 489.22 215.00 489.00 C 233.23 488.78 251.01 489.24 269.00 489.00 C 286.99 488.76 306.34 489.40 324.00 489.00 C 341.66 488.60 361.04 489.86 378.00 489.00 C 394.96 488.14 417.50 490.84 433.00 489.00 C 448.50 487.16 471.14 496.08 479.74 481.74 C 488.35 467.41 479.32 445.76 482.00 429.00 C 484.68 412.24 480.56 393.23 481.00 376.00 C 481.44 358.77 480.90 338.51 481.00 321.00 C 481.10 303.49 481.62 284.77 480.00 268.00 Z"/>
</g>
<g fill="None" fill-opacity="0.0" stroke="#6C5F56" stroke-opacity="1.00" stroke-width="0.3"><path d="
M 42.00 339.00 
C 48.92 338.37 56.06 339.26 63.00 339.00 C 69.94 338.74 77.08 339.08 84.00 339.00 C 90.92 338.92 98.15 338.95 105.00 339.00 C 111.85 339.05 119.32 338.78 126.00 339.00 C 132.68 339.22 140.70 338.47 147.00 339.00 C 153.30 339.53 162.54 337.80 168.00 339.00 C 173.46 340.20 185.11 335.87 188.00 340.00
C 190.57 343.68 186.93 351.22 188.00 356.00 C 189.07 360.78 187.53 367.75 188.00 373.00 C 188.47 378.25 187.82 384.55 188.00 390.00 C 188.18 395.45 188.00 401.50 188.00 407.00
C 197.93 407.93 207.41 412.77 217.67 412.33 C 227.93 411.89 232.78 418.83 240.00 425.00
C 230.58 415.58 221.18 405.56 212.00 396.00
C 241.60 394.33 274.47 394.33 304.00 396.00
C 293.10 407.27 282.04 418.96 271.00 430.00
C 278.47 423.62 283.28 414.14 293.22 412.22 C 303.16 410.30 317.04 409.10 327.00 406.00
C 327.00 400.71 326.79 395.28 327.00 390.00 C 327.21 384.72 326.49 378.12 327.00 373.00 C 327.51 367.88 325.76 361.65 327.00 357.00 C 328.24 352.35 324.39 343.73 327.00 340.00
C 329.81 335.99 340.73 340.13 346.00 339.00 C 351.27 337.87 359.83 339.48 366.00 339.00 C 372.17 338.52 380.48 339.21 387.00 339.00 C 393.52 338.79 400.29 339.04 407.00 339.00 C 413.71 338.96 421.22 338.92 428.00 339.00 C 434.78 339.08 441.19 338.72 448.00 339.00 C 454.81 339.28 462.18 338.38 469.00 339.00
C 468.95 292.67 469.00 246.33 469.00 200.00
C 459.00 200.00 449.00 200.00 439.00 200.00
C 434.11 218.39 423.38 234.72 414.00 251.00
C 416.28 252.57 418.57 254.67 420.00 257.00
C 423.46 261.05 429.69 265.28 432.00 270.00
C 432.20 270.40 432.00 271.00 432.00 271.00
C 427.44 280.32 415.55 285.94 409.25 294.25 C 402.94 302.56 393.00 309.42 386.00 317.00
C 383.70 306.17 385.64 294.25 385.00 283.00
C 382.34 288.83 371.87 291.13 367.25 296.25 C 362.64 301.38 354.35 304.03 348.25 308.25 C 342.16 312.48 334.22 314.84 326.93 317.93 C 319.63 321.01 311.14 324.04 302.93 325.93 C 294.71 327.81 285.64 330.02 276.78 330.78 C 267.92 331.54 256.36 332.40 247.33 331.67 C 238.30 330.94 228.31 330.13 219.78 328.22 C 211.25 326.31 201.89 324.83 193.98 322.02 C 186.06 319.22 179.43 315.96 171.93 313.07 C 164.42 310.18 159.14 305.38 152.25 301.75 C 145.36 298.11 139.75 292.53 133.00 289.00
C 131.81 296.83 135.47 311.07 131.00 315.00
C 125.59 314.16 119.71 303.09 115.25 299.75 C 110.79 296.41 103.10 288.48 99.75 284.25 C 96.41 280.02 84.57 273.17 85.00 268.00
C 85.42 262.93 98.19 259.48 93.23 253.77 C 88.27 248.06 86.40 243.28 82.70 237.30 C 78.99 231.33 76.17 226.07 73.23 219.77 C 70.29 213.47 68.35 206.53 66.00 200.00
C 58.00 200.00 50.00 200.00 42.00 200.00
C 42.00 246.33 42.00 292.67 42.00 339.00 Z"/>
</g>
<g fill="None" fill-opacity="0.0" stroke="#7B6F67" stroke-opacity="1.00" stroke-width="0.3"><path d="
M 85.00 268.00 
C 101.26 253.89 115.27 235.91 132.00 223.00
C 131.33 253.50 133.33 285.32 131.00 315.00
C 135.47 311.07 131.81 296.83 133.00 289.00
C 139.75 292.53 145.36 298.11 152.25 301.75 C 159.14 305.38 164.42 310.18 171.93 313.07 C 179.43 315.96 186.06 319.22 193.98 322.02 C 201.89 324.83 211.25 326.31 219.78 328.22 C 228.31 330.13 238.30 330.94 247.33 331.67 C 256.36 332.40 267.92 331.54 276.78 330.78 C 285.64 330.02 294.71 327.81 302.93 325.93 C 311.14 324.04 319.63 321.01 326.93 317.93 C 334.22 314.84 342.16 312.48 348.25 308.25 C 354.35 304.03 362.64 301.38 367.25 296.25 C 371.87 291.13 382.34 288.83 385.00 283.00
C 385.00 263.42 384.17 243.14 386.00 224.00
C 397.83 234.34 408.22 246.71 420.00 257.00
C 418.57 254.67 416.28 252.57 414.00 251.00
C 423.38 234.72 434.11 218.39 439.00 200.00
C 417.67 200.00 396.33 200.00 375.00 200.00
C 369.70 202.31 368.76 213.78 363.75 217.75 C 358.73 221.71 355.76 228.81 350.25 233.25 C 344.74 237.69 340.01 243.02 333.92 246.92 C 327.83 250.82 322.72 254.58 315.92 257.92 C 309.13 261.27 301.84 263.71 294.32 266.32 C 286.80 268.94 278.37 269.97 270.00 271.00 C 261.63 272.03 250.15 272.36 241.78 271.22 C 233.41 270.08 224.92 269.15 217.32 266.68 C 209.73 264.20 202.72 261.34 195.78 258.22 C 188.84 255.11 183.92 251.05 177.75 247.25 C 171.58 243.44 166.84 238.14 161.25 233.75 C 155.66 229.36 152.88 222.15 147.75 218.25 C 142.61 214.36 141.31 202.32 136.00 200.00
C 124.00 200.00 112.00 200.00 100.00 200.00
C 88.67 200.00 77.33 200.00 66.00 200.00
C 68.35 206.53 70.29 213.47 73.23 219.77 C 76.17 226.07 78.99 231.33 82.70 237.30 C 86.40 243.28 88.27 248.06 93.23 253.77 C 98.19 259.48 85.42 262.93 85.00 268.00 Z"/>
</g>
<g fill="None" fill-opacity="0.0" stroke="#857A73" stroke-opacity="1.00" stroke-width="0.3"><path d="
M 375.00 200.00 
C 370.00 200.00 365.00 200.00 360.00 200.00
C 356.00 200.00 352.00 200.00 348.00 200.00
C 342.87 202.34 340.99 212.94 335.25 216.25 C 329.51 219.56 326.16 225.73 320.08 229.08 C 314.00 232.43 309.10 236.40 302.22 239.22 C 295.35 242.05 288.29 244.76 280.67 246.67 C 273.05 248.59 263.34 248.90 255.00 249.00 C 246.66 249.10 237.21 248.26 229.67 246.33 C 222.13 244.40 214.79 241.95 208.08 238.92 C 201.36 235.90 196.24 232.18 190.25 228.75 C 184.26 225.33 180.88 219.10 175.25 215.75 C 169.62 212.40 168.09 202.33 163.00 200.00
C 154.00 200.00 145.00 200.00 136.00 200.00
C 141.31 202.32 142.61 214.36 147.75 218.25 C 152.88 222.15 155.66 229.36 161.25 233.75 C 166.84 238.14 171.58 243.44 177.75 247.25 C 183.92 251.05 188.84 255.11 195.78 258.22 C 202.72 261.34 209.73 264.20 217.32 266.68 C 224.92 269.15 233.41 270.08 241.78 271.22 C 250.15 272.36 261.63 272.03 270.00 271.00 C 278.37 269.97 286.80 268.94 294.32 266.32 C 301.84 263.71 309.13 261.27 315.92 257.92 C 322.72 254.58 327.83 250.82 333.92 246.92 C 340.01 243.02 344.74 237.69 350.25 233.25 C 355.76 228.81 358.73 221.71 363.75 217.75 C 368.76 213.78 369.70 202.31 375.00 200.00 Z"/>
</g>
<g fill="None" fill-opacity="0.0" stroke="#FAFAFA" stroke-opacity="1.00" stroke-width="0.3"><path d="
M 85.00 268.00 
C 84.57 273.17 96.41 280.02 99.75 284.25 C 103.10 288.48 110.79 296.41 115.25 299.75 C 119.71 303.09 125.59 314.16 131.00 315.00
C 133.33 285.32 131.33 253.50 132.00 223.00
C 115.27 235.91 101.26 253.89 85.00 268.00 Z"/>
</g>
<g fill="None" fill-opacity="0.0" stroke="#B1AAA6" stroke-opacity="1.00" stroke-width="0.3"><path d="
M 385.00 283.00 
C 385.64 294.25 383.70 306.17 386.00 317.00
C 393.00 309.42 402.94 302.56 409.25 294.25 C 415.55 285.94 427.44 280.32 432.00 271.00
C 414.63 283.13 402.94 303.37 386.00 316.00
C 386.00 285.67 386.00 255.33 386.00 225.00
C 401.83 239.34 416.21 255.71 432.00 270.00
C 429.69 265.28 423.46 261.05 420.00 257.00
C 408.22 246.71 397.83 234.34 386.00 224.00
C 384.17 243.14 385.00 263.42 385.00 283.00 Z"/>
</g>
<g fill="None" fill-opacity="0.0" stroke="#FEFEFE" stroke-opacity="1.00" stroke-width="0.3"><path d="
M 432.00 271.00 
C 432.00 271.00 432.20 270.40 432.00 270.00
C 416.21 255.71 401.83 239.34 386.00 225.00
C 386.00 255.33 386.00 285.67 386.00 316.00
C 402.94 303.37 414.63 283.13 432.00 271.00 Z"/>
</g>
<g fill="None" fill-opacity="0.0" stroke="#5F634B" stroke-opacity="1.00" stroke-width="0.3"><path d="
M 42.00 340.00 
C 90.27 344.36 139.63 336.73 188.00 340.00
C 185.11 335.87 173.46 340.20 168.00 339.00 C 162.54 337.80 153.30 339.53 147.00 339.00 C 140.70 338.47 132.68 339.22 126.00 339.00 C 119.32 338.78 111.85 339.05 105.00 339.00 C 98.15 338.95 90.92 338.92 84.00 339.00 C 77.08 339.08 69.94 338.74 63.00 339.00 C 56.06 339.26 48.92 338.37 42.00 339.00
C 42.00 339.00 42.00 339.50 42.00 340.00 Z"/>
</g>
<g fill="None" fill-opacity="0.0" stroke="#75674B" stroke-opacity="1.00" stroke-width="0.3"><path d="
M 327.00 340.00 
C 374.05 336.82 422.05 344.24 469.00 340.00
C 469.00 340.00 469.00 339.50 469.00 339.00
C 462.18 338.38 454.81 339.28 448.00 339.00 C 441.19 338.72 434.78 339.08 428.00 339.00 C 421.22 338.92 413.71 338.96 407.00 339.00 C 400.29 339.04 393.52 338.79 387.00 339.00 C 380.48 339.21 372.17 338.52 366.00 339.00 C 359.83 339.48 351.27 337.87 346.00 339.00 C 340.73 340.13 329.81 335.99 327.00 340.00 Z"/>
</g>
<g fill="None" fill-opacity="0.0" stroke="#09A709" stroke-opacity="1.00" stroke-width="0.3"><path d="
M 42.00 480.00 
C 90.67 480.00 139.33 480.00 188.00 480.00
C 188.00 455.67 188.00 431.33 188.00 407.00
C 188.00 401.50 188.18 395.45 188.00 390.00 C 187.82 384.55 188.47 378.25 188.00 373.00 C 187.53 367.75 189.07 360.78 188.00 356.00 C 186.93 351.22 190.57 343.68 188.00 340.00
C 139.63 336.73 90.27 344.36 42.00 340.00
C 42.00 386.67 42.00 433.34 42.00 480.00 Z"/>
</g>
<g fill="None" fill-opacity="0.0" stroke="#DFC809" stroke-opacity="1.00" stroke-width="0.3"><path d="
M 327.00 406.00 
C 327.00 430.66 327.00 455.34 327.00 480.00
C 374.33 480.00 421.67 480.00 469.00 480.00
C 466.88 456.90 469.80 433.21 469.00 410.00 C 468.20 386.79 469.00 363.24 469.00 340.00
C 422.05 344.24 374.05 336.82 327.00 340.00
C 324.39 343.73 328.24 352.35 327.00 357.00 C 325.76 361.65 327.51 367.88 327.00 373.00 C 326.49 378.12 327.21 384.72 327.00 390.00 C 326.79 395.28 327.00 400.71 327.00 406.00 Z"/>
</g>
<g fill="None" fill-opacity="0.0" stroke="#FEFEFE" stroke-opacity="1.00" stroke-width="0.3"><path d="
M 212.00 396.00 
C 227.33 410.50 242.55 425.71 257.00 441.00
C 273.75 428.07 287.79 410.06 304.00 396.00
C 274.47 394.33 241.60 394.33 212.00 396.00 Z"/>
</g>
<g fill="None" fill-opacity="0.0" stroke="#9F9791" stroke-opacity="1.00" stroke-width="0.3"><path d="
M 240.00 425.00 
C 246.02 430.15 251.86 436.06 257.00 442.00
C 262.67 439.97 265.84 433.13 271.00 430.00
C 282.04 418.96 293.10 407.27 304.00 396.00
C 287.79 410.06 273.75 428.07 257.00 441.00
C 242.55 425.71 227.33 410.50 212.00 396.00
C 221.18 405.56 230.58 415.58 240.00 425.00 Z"/>
</g>
<g fill="None" fill-opacity="0.0" stroke="#5B4C43" stroke-opacity="1.00" stroke-width="0.3"><path d="
M 271.00 430.00 
C 265.84 433.13 262.67 439.97 257.00 442.00
C 251.86 436.06 246.02 430.15 240.00 425.00
C 232.78 418.83 227.93 411.89 217.67 412.33 C 207.41 412.77 197.93 407.93 188.00 407.00
C 188.00 431.33 188.00 455.67 188.00 480.00
C 234.33 480.00 280.67 480.00 327.00 480.00
C 327.00 455.34 327.00 430.66 327.00 406.00
C 317.04 409.10 303.16 410.30 293.22 412.22 C 283.28 414.14 278.47 423.62 271.00 430.00 Z"/>
</g>
<g fill="None" fill-opacity="0.0" stroke="#000000" stroke-opacity="0.16" stroke-width="0.3"><path d="
M 477.00 480.00 
C 475.05 480.57 472.04 480.00 470.00 480.00
C 457.54 487.14 438.81 480.09 424.00 482.00 C 409.19 483.91 391.46 481.13 376.00 482.00 C 360.54 482.87 343.75 481.60 328.00 482.00 C 312.25 482.40 295.88 481.81 280.00 482.00 C 264.12 482.19 247.93 481.88 232.00 482.00 C 216.07 482.12 199.93 481.88 184.00 482.00 C 168.07 482.12 151.89 481.81 136.00 482.00 C 120.11 482.19 103.77 481.60 88.00 482.00 C 72.23 482.40 56.56 481.98 42.00 480.00
C 39.82 479.70 37.11 480.62 35.00 480.00
C 48.91 493.77 74.58 483.72 94.00 486.00 C 113.42 488.28 138.43 485.05 159.00 486.00 C 179.57 486.95 203.01 485.75 224.00 486.00 C 244.99 486.25 268.03 486.27 289.00 486.00 C 309.97 485.73 333.52 486.97 354.00 486.00 C 374.48 485.03 399.81 488.33 419.00 486.00 C 438.19 483.67 463.78 494.02 477.00 480.00 Z"/>
</g>
<g fill="None" fill-opacity="0.0" stroke="#000000" stroke-opacity="0.26" stroke-width="0.3"><path d="
M 470.00 480.00 
C 470.00 480.00 469.50 480.00 469.00 480.00
C 421.67 480.00 374.33 480.00 327.00 480.00
C 280.67 480.00 234.33 480.00 188.00 480.00
C 139.33 480.00 90.67 480.00 42.00 480.00
C 56.56 481.98 72.23 482.40 88.00 482.00 C 103.77 481.60 120.11 482.19 136.00 482.00 C 151.89 481.81 168.07 482.12 184.00 482.00 C 199.93 481.88 216.07 482.12 232.00 482.00 C 247.93 481.88 264.12 482.19 280.00 482.00 C 295.88 481.81 312.25 482.40 328.00 482.00 C 343.75 481.60 360.54 482.87 376.00 482.00 C 391.46 481.13 409.19 483.91 424.00 482.00 C 438.81 480.09 457.54 487.14 470.00 480.00 Z"/>
</g>
<g fill="#000000" fill-opacity="0.00" stroke="None">
<path d="
M 0.00 512.00 
L 512.00 512.00
L 512.00 0.00
L 0.00 0.00
L 0.00 512.00
M 480.00 53.00 
C 480.26 53.24 480.00 55.61 480.00 56.00
C 480.00 126.67 480.00 197.33 480.00 268.00
C 481.62 284.77 481.10 303.49 481.00 321.00 C 480.90 338.51 481.44 358.77 481.00 376.00 C 480.56 393.23 484.68 412.24 482.00 429.00 C 479.32 445.76 488.35 467.41 479.74 481.74 C 471.14 496.08 448.50 487.16 433.00 489.00 C 417.50 490.84 394.96 488.14 378.00 489.00 C 361.04 489.86 341.66 488.60 324.00 489.00 C 306.34 489.40 286.99 488.76 269.00 489.00 C 251.01 489.24 233.23 488.78 215.00 489.00 C 196.77 489.22 178.48 488.64 160.00 489.00 C 141.52 489.36 124.97 488.25 106.00 489.00 C 87.03 489.75 70.94 487.40 51.00 489.00 C 31.06 490.60 27.56 474.98 29.00 457.00 C 30.44 439.02 29.39 421.03 30.00 403.00 C 30.61 384.97 29.99 367.09 30.00 349.00 C 30.01 330.91 30.25 312.86 31.00 295.00 C 31.75 277.14 30.64 258.90 31.00 241.00 C 31.36 223.10 30.35 204.10 32.00 187.00
C 32.00 143.33 32.00 99.67 32.00 56.00
C 32.00 55.61 31.74 53.24 32.00 53.00
C 33.57 49.24 39.30 45.01 42.25 42.25 C 45.19 39.48 49.19 33.14 53.00 32.00
C 65.34 28.31 80.00 33.62 93.00 32.00 C 106.00 30.38 120.72 32.75 134.00 32.00 C 147.28 31.25 160.57 32.32 174.00 32.00 C 187.43 31.68 201.49 32.12 215.00 32.00 C 228.51 31.88 242.50 32.00 256.00 32.00 C 269.50 32.00 282.53 31.87 296.00 32.00 C 309.47 32.13 323.58 31.67 337.00 32.00 C 350.42 32.33 363.68 31.22 377.00 32.00 C 390.32 32.78 404.90 30.30 418.00 32.00 C 431.10 33.70 446.50 28.26 459.00 32.00
C 462.86 33.16 466.80 39.50 469.75 42.25 C 472.71 45.00 478.46 49.30 480.00 53.00 Z"/>
</g>
<g fill="#8A8A8A" fill-opacity="0.29" stroke="None">
<path d="
M 32.00 53.00 
C 32.27 52.75 33.00 53.00 33.00 53.00
C 35.46 49.48 39.07 46.93 42.00 44.00
C 44.75 41.25 49.55 33.27 53.00 32.00
C 49.19 33.14 45.19 39.48 42.25 42.25 C 39.30 45.01 33.57 49.24 32.00 53.00 Z"/>
</g>
<g fill="#848484" fill-opacity="1.00" stroke="None">
<path d="
M 42.00 44.00 
C 55.64 37.69 71.84 44.11 87.00 42.00 C 102.16 39.89 119.29 40.87 135.00 40.00 C 150.71 39.13 166.97 39.10 183.00 39.00 C 199.03 38.90 216.02 38.23 232.00 38.00 C 247.98 37.77 265.09 37.41 281.00 38.00 C 296.91 38.59 314.12 38.57 330.00 39.00 C 345.88 39.43 361.49 39.84 377.02 40.98 C 392.56 42.11 411.29 39.04 426.00 42.00 C 440.71 44.96 458.47 37.00 471.00 45.00
C 468.00 42.00 462.78 33.39 459.00 32.00
C 446.50 28.26 431.10 33.70 418.00 32.00 C 404.90 30.30 390.32 32.78 377.00 32.00 C 363.68 31.22 350.42 32.33 337.00 32.00 C 323.58 31.67 309.47 32.13 296.00 32.00 C 282.53 31.87 269.50 32.00 256.00 32.00 C 242.50 32.00 228.51 31.88 215.00 32.00 C 201.49 32.12 187.43 31.68 174.00 32.00 C 160.57 32.32 147.28 31.25 134.00 32.00 C 120.72 32.75 106.00 30.38 93.00 32.00 C 80.00 33.62 65.34 28.31 53.00 32.00
C 49.55 33.27 44.75 41.25 42.00 44.00 Z"/>
</g>
<g fill="#8A8A8A" fill-opacity="0.29" stroke="None">
<path d="
M 471.00 45.00 
C 473.67 47.67 476.82 49.89 479.00 53.00
C 479.25 53.25 480.00 53.00 480.00 53.00
C 478.46 49.30 472.71 45.00 469.75 42.25 C 466.80 39.50 462.86 33.16 459.00 32.00
C 462.78 33.39 468.00 42.00 471.00 45.00 Z"/>
</g>
<g fill="#A0A0A0" fill-opacity="1.00" stroke="None">
<path d="
M 42.00 44.00 
C 39.07 46.93 35.46 49.48 33.00 53.00
C 41.89 46.21 55.42 50.11 67.00 49.00 C 78.58 47.89 91.50 49.26 103.02 48.02 C 114.54 46.79 127.45 48.53 139.00 47.00 C 150.56 45.47 164.91 48.24 177.00 47.00 C 189.09 45.76 202.35 45.96 215.00 46.00 C 227.65 46.04 241.29 46.01 254.00 46.00 C 266.71 45.99 279.31 46.08 292.00 46.00 C 304.69 45.92 317.70 45.76 330.01 46.99 C 342.31 48.22 356.24 45.54 368.07 47.93 C 379.90 50.31 394.64 45.29 406.00 48.00 C 417.36 50.71 433.40 46.33 444.00 49.00 C 454.60 51.67 471.46 45.31 479.00 53.00
C 476.82 49.89 473.67 47.67 471.00 45.00
C 458.47 37.00 440.71 44.96 426.00 42.00 C 411.29 39.04 392.56 42.11 377.02 40.98 C 361.49 39.84 345.88 39.43 330.00 39.00 C 314.12 38.57 296.91 38.59 281.00 38.00 C 265.09 37.41 247.98 37.77 232.00 38.00 C 216.02 38.23 199.03 38.90 183.00 39.00 C 166.97 39.10 150.71 39.13 135.00 40.00 C 119.29 40.87 102.16 39.89 87.00 42.00 C 71.84 44.11 55.64 37.69 42.00 44.00 Z"/>
</g>
<g fill="#BABABA" fill-opacity="1.00" stroke="None">
<path d="
M 33.00 53.00 
C 33.00 53.00 32.27 52.75 32.00 53.00
C 31.74 53.24 32.00 55.61 32.00 56.00
C 35.31 55.78 38.69 56.30 42.00 56.00
C 41.96 56.00 42.00 55.00 42.00 55.00
C 42.65 50.57 55.87 53.70 61.00 53.00 C 66.13 52.30 75.71 53.33 82.00 53.00 C 88.29 52.67 97.25 53.22 104.00 53.00 C 110.75 52.78 118.03 53.24 125.00 53.00 C 131.97 52.76 139.97 53.41 147.00 53.00 C 154.03 52.59 161.02 53.89 168.00 53.00 C 174.98 52.11 183.22 53.99 188.00 55.00
C 202.45 58.05 219.15 54.19 234.00 55.00 C 248.85 55.81 265.09 55.90 280.00 55.00 C 294.91 54.10 312.40 58.08 327.00 55.00
C 331.40 54.07 338.31 52.16 345.00 53.00 C 351.69 53.84 359.21 52.60 366.00 53.00 C 372.79 53.40 380.23 52.77 387.00 53.00 C 393.77 53.23 401.42 52.78 408.00 53.00 C 414.58 53.22 422.88 52.65 429.00 53.00 C 435.12 53.35 444.93 52.28 450.00 53.00 C 455.07 53.72 468.34 50.53 469.00 55.00
C 469.07 55.49 469.00 56.00 469.00 56.00
C 472.64 56.33 476.36 55.75 480.00 56.00
C 480.00 55.61 480.26 53.24 480.00 53.00
C 480.00 53.00 479.25 53.25 479.00 53.00
C 471.46 45.31 454.60 51.67 444.00 49.00 C 433.40 46.33 417.36 50.71 406.00 48.00 C 394.64 45.29 379.90 50.31 368.07 47.93 C 356.24 45.54 342.31 48.22 330.01 46.99 C 317.70 45.76 304.69 45.92 292.00 46.00 C 279.31 46.08 266.71 45.99 254.00 46.00 C 241.29 46.01 227.65 46.04 215.00 46.00 C 202.35 45.96 189.09 45.76 177.00 47.00 C 164.91 48.24 150.56 45.47 139.00 47.00 C 127.45 48.53 114.54 46.79 103.02 48.02 C 91.50 49.26 78.58 47.89 67.00 49.00 C 55.42 50.11 41.89 46.21 33.00 53.00 Z"/>
</g>
<g fill="#EDB0AA" fill-opacity="1.00" stroke="None">
<path d="
M 42.00 55.00 
C 90.27 50.63 139.63 58.27 188.00 55.00
C 183.22 53.99 174.98 52.11 168.00 53.00 C 161.02 53.89 154.03 52.59 147.00 53.00 C 139.97 53.41 131.97 52.76 125.00 53.00 C 118.03 53.24 110.75 52.78 104.00 53.00 C 97.25 53.22 88.29 52.67 82.00 53.00 C 75.71 53.33 66.13 52.30 61.00 53.00 C 55.87 53.70 42.65 50.57 42.00 55.00 Z"/>
</g>
<g fill="#AACDE4" fill-opacity="1.00" stroke="None">
<path d="
M 327.00 55.00 
C 374.05 58.18 422.05 50.76 469.00 55.00
C 468.34 50.53 455.07 53.72 450.00 53.00 C 444.93 52.28 435.12 53.35 429.00 53.00 C 422.88 52.65 414.58 53.22 408.00 53.00 C 401.42 52.78 393.77 53.23 387.00 53.00 C 380.23 52.77 372.79 53.40 366.00 53.00 C 359.21 52.60 351.69 53.84 345.00 53.00 C 338.31 52.16 331.40 54.07 327.00 55.00 Z"/>
</g>
<g fill="#EC5546" fill-opacity="1.00" stroke="None">
<path d="
M 42.00 56.00 
C 66.14 58.18 90.81 54.36 115.00 56.00
C 91.39 98.36 86.13 153.88 106.00 199.00
C 104.12 199.47 101.07 197.94 100.00 200.00
C 112.00 200.00 124.00 200.00 136.00 200.00
C 145.00 200.00 154.00 200.00 163.00 200.00
C 171.33 200.00 179.67 200.00 188.00 200.00
C 188.00 151.67 188.00 103.33 188.00 55.00
C 139.63 58.27 90.27 50.63 42.00 55.00
C 42.00 55.00 41.96 56.00 42.00 56.00 Z"/>
</g>
<g fill="#918780" fill-opacity="1.00" stroke="None">
<path d="
M 163.00 200.00 
C 168.09 202.33 169.62 212.40 175.25 215.75 C 180.88 219.10 184.26 225.33 190.25 228.75 C 196.24 232.18 201.36 235.90 208.08 238.92 C 214.79 241.95 222.13 244.40 229.67 246.33 C 237.21 248.26 246.66 249.10 255.00 249.00 C 263.34 248.90 273.05 248.59 280.67 246.67 C 288.29 244.76 295.35 242.05 302.22 239.22 C 309.10 236.40 314.00 232.43 320.08 229.08 C 326.16 225.73 329.51 219.56 335.25 216.25 C 340.99 212.94 342.87 202.34 348.00 200.00
C 341.00 200.00 334.00 200.00 327.00 200.00
C 327.00 151.67 327.00 103.33 327.00 55.00
C 312.40 58.08 294.91 54.10 280.00 55.00 C 265.09 55.90 248.85 55.81 234.00 55.00 C 219.15 54.19 202.45 58.05 188.00 55.00
C 188.00 103.33 188.00 151.67 188.00 200.00
C 179.67 200.00 171.33 200.00 163.00 200.00
M 258.00 94.00 
C 272.11 110.26 290.09 124.27 303.00 141.00
C 272.33 141.00 241.67 141.00 211.00 141.00
C 224.86 124.64 241.67 107.84 258.00 94.00 Z"/>
</g>
<g fill="#499FD6" fill-opacity="1.00" stroke="None">
<path d="
M 348.00 200.00 
C 352.00 200.00 356.00 200.00 360.00 200.00
C 366.58 199.36 374.70 198.40 382.00 199.00
C 403.45 153.70 399.01 97.02 370.00 56.00
C 403.00 56.00 436.00 56.00 469.00 56.00
C 469.00 56.00 469.07 55.49 469.00 55.00
C 422.05 50.76 374.05 58.18 327.00 55.00
C 327.00 103.33 327.00 151.67 327.00 200.00
C 334.00 200.00 341.00 200.00 348.00 200.00 Z"/>
</g>
<g fill="#888888" fill-opacity="1.00" stroke="None">
<path d="
M 32.00 187.00 
C 32.00 284.67 32.00 382.33 32.00 480.00
C 33.00 480.00 34.00 480.00 35.00 480.00
C 37.11 480.62 39.82 479.70 42.00 480.00
C 42.00 433.34 42.00 386.67 42.00 340.00
C 42.00 339.50 42.00 339.00 42.00 339.00
C 42.00 292.67 42.00 246.33 42.00 200.00
C 42.00 152.00 42.00 104.00 42.00 56.00
C 38.69 56.30 35.31 55.78 32.00 56.00
C 32.00 99.67 32.00 143.33 32.00 187.00 Z"/>
</g>
<g fill="#EA3D2C" fill-opacity="1.00" stroke="None">
<path d="
M 42.00 200.00 
C 50.00 200.00 58.00 200.00 66.00 200.00
C 77.33 200.00 88.67 200.00 100.00 200.00
C 101.07 197.94 104.12 199.47 106.00 199.00
C 86.13 153.88 91.39 98.36 115.00 56.00
C 90.81 54.36 66.14 58.18 42.00 56.00
C 42.00 104.00 42.00 152.00 42.00 200.00 Z"/>
</g>
<g fill="#3092D1" fill-opacity="1.00" stroke="None">
<path d="
M 360.00 200.00 
C 365.00 200.00 370.00 200.00 375.00 200.00
C 396.33 200.00 417.67 200.00 439.00 200.00
C 449.00 200.00 459.00 200.00 469.00 200.00
C 469.00 152.00 469.00 104.00 469.00 56.00
C 436.00 56.00 403.00 56.00 370.00 56.00
C 399.01 97.02 403.45 153.70 382.00 199.00
C 374.70 198.40 366.58 199.36 360.00 200.00 Z"/>
</g>
<g fill="#888888" fill-opacity="1.00" stroke="None">
<path d="
M 469.00 200.00 
C 469.00 246.33 468.95 292.67 469.00 339.00
C 469.00 339.50 469.00 340.00 469.00 340.00
C 469.00 363.24 468.20 386.79 469.00 410.00 C 469.80 433.21 466.88 456.90 469.00 480.00
C 469.50 480.00 470.00 480.00 470.00 480.00
C 472.04 480.00 475.05 480.57 477.00 480.00
C 477.47 479.50 479.42 480.40 480.00 480.00
C 480.00 409.33 480.00 338.67 480.00 268.00
C 480.00 197.33 480.00 126.67 480.00 56.00
C 476.36 55.75 472.64 56.33 469.00 56.00
C 469.00 104.00 469.00 152.00 469.00 200.00 Z"/>
</g>
<g fill="#FBFBFB" fill-opacity="1.00" stroke="None">
<path d="
M 258.00 94.00 
C 241.67 107.84 224.86 124.64 211.00 141.00
C 241.67 141.00 272.33 141.00 303.00 141.00
C 290.09 124.27 272.11 110.26 258.00 94.00 Z"/>
</g>
<g fill="#000000" fill-opacity="0.06" stroke="None">
<path d="
M 480.00 268.00 
C 480.00 338.67 480.00 409.33 480.00 480.00
C 479.42 480.40 477.47 479.50 477.00 480.00
C 463.78 494.02 438.19 483.67 419.00 486.00 C 399.81 488.33 374.48 485.03 354.00 486.00 C 333.52 486.97 309.97 485.73 289.00 486.00 C 268.03 486.27 244.99 486.25 224.00 486.00 C 203.01 485.75 179.57 486.95 159.00 486.00 C 138.43 485.05 113.42 488.28 94.00 486.00 C 74.58 483.72 48.91 493.77 35.00 480.00
C 34.00 480.00 33.00 480.00 32.00 480.00
C 32.00 382.33 32.00 284.67 32.00 187.00
C 30.35 204.10 31.36 223.10 31.00 241.00 C 30.64 258.90 31.75 277.14 31.00 295.00 C 30.25 312.86 30.01 330.91 30.00 349.00 C 29.99 367.09 30.61 384.97 30.00 403.00 C 29.39 421.03 30.44 439.02 29.00 457.00 C 27.56 474.98 31.06 490.60 51.00 489.00 C 70.94 487.40 87.03 489.75 106.00 489.00 C 124.97 488.25 141.52 489.36 160.00 489.00 C 178.48 488.64 196.77 489.22 215.00 489.00 C 233.23 488.78 251.01 489.24 269.00 489.00 C 286.99 488.76 306.34 489.40 324.00 489.00 C 341.66 488.60 361.04 489.86 378.00 489.00 C 394.96 488.14 417.50 490.84 433.00 489.00 C 448.50 487.16 471.14 496.08 479.74 481.74 C 488.35 467.41 479.32 445.76 482.00 429.00 C 484.68 412.24 480.56 393.23 481.00 376.00 C 481.44 358.77 480.90 338.51 481.00 321.00 C 481.10 303.49 481.62 284.77 480.00 268.00 Z"/>
</g>
<g fill="#6C5F56" fill-opacity="1.00" stroke="None">
<path d="
M 42.00 339.00 
C 48.92 338.37 56.06 339.26 63.00 339.00 C 69.94 338.74 77.08 339.08 84.00 339.00 C 90.92 338.92 98.15 338.95 105.00 339.00 C 111.85 339.05 119.32 338.78 126.00 339.00 C 132.68 339.22 140.70 338.47 147.00 339.00 C 153.30 339.53 162.54 337.80 168.00 339.00 C 173.46 340.20 185.11 335.87 188.00 340.00
C 190.57 343.68 186.93 351.22 188.00 356.00 C 189.07 360.78 187.53 367.75 188.00 373.00 C 188.47 378.25 187.82 384.55 188.00 390.00 C 188.18 395.45 188.00 401.50 188.00 407.00
C 197.93 407.93 207.41 412.77 217.67 412.33 C 227.93 411.89 232.78 418.83 240.00 425.00
C 230.58 415.58 221.18 405.56 212.00 396.00
C 241.60 394.33 274.47 394.33 304.00 396.00
C 293.10 407.27 282.04 418.96 271.00 430.00
C 278.47 423.62 283.28 414.14 293.22 412.22 C 303.16 410.30 317.04 409.10 327.00 406.00
C 327.00 400.71 326.79 395.28 327.00 390.00 C 327.21 384.72 326.49 378.12 327.00 373.00 C 327.51 367.88 325.76 361.65 327.00 357.00 C 328.24 352.35 324.39 343.73 327.00 340.00
C 329.81 335.99 340.73 340.13 346.00 339.00 C 351.27 337.87 359.83 339.48 366.00 339.00 C 372.17 338.52 380.48 339.21 387.00 339.00 C 393.52 338.79 400.29 339.04 407.00 339.00 C 413.71 338.96 421.22 338.92 428.00 339.00 C 434.78 339.08 441.19 338.72 448.00 339.00 C 454.81 339.28 462.18 338.38 469.00 339.00
C 468.95 292.67 469.00 246.33 469.00 200.00
C 459.00 200.00 449.00 200.00 439.00 200.00
C 434.11 218.39 423.38 234.72 414.00 251.00
C 416.28 252.57 418.57 254.67 420.00 257.00
C 423.46 261.05 429.69 265.28 432.00 270.00
C 432.20 270.40 432.00 271.00 432.00 271.00
C 427.44 280.32 415.55 285.94 409.25 294.25 C 402.94 302.56 393.00 309.42 386.00 317.00
C 383.70 306.17 385.64 294.25 385.00 283.00
C 382.34 288.83 371.87 291.13 367.25 296.25 C 362.64 301.38 354.35 304.03 348.25 308.25 C 342.16 312.48 334.22 314.84 326.93 317.93 C 319.63 321.01 311.14 324.04 302.93 325.93 C 294.71 327.81 285.64 330.02 276.78 330.78 C 267.92 331.54 256.36 332.40 247.33 331.67 C 238.30 330.94 228.31 330.13 219.78 328.22 C 211.25 326.31 201.89 324.83 193.98 322.02 C 186.06 319.22 179.43 315.96 171.93 313.07 C 164.42 310.18 159.14 305.38 152.25 301.75 C 145.36 298.11 139.75 292.53 133.00 289.00
C 131.81 296.83 135.47 311.07 131.00 315.00
C 125.59 314.16 119.71 303.09 115.25 299.75 C 110.79 296.41 103.10 288.48 99.75 284.25 C 96.41 280.02 84.57 273.17 85.00 268.00
C 85.42 262.93 98.19 259.48 93.23 253.77 C 88.27 248.06 86.40 243.28 82.70 237.30 C 78.99 231.33 76.17 226.07 73.23 219.77 C 70.29 213.47 68.35 206.53 66.00 200.00
C 58.00 200.00 50.00 200.00 42.00 200.00
C 42.00 246.33 42.00 292.67 42.00 339.00 Z"/>
</g>
<g fill="#7B6F67" fill-opacity="1.00" stroke="None">
<path d="
M 85.00 268.00 
C 101.26 253.89 115.27 235.91 132.00 223.00
C 131.33 253.50 133.33 285.32 131.00 315.00
C 135.47 311.07 131.81 296.83 133.00 289.00
C 139.75 292.53 145.36 298.11 152.25 301.75 C 159.14 305.38 164.42 310.18 171.93 313.07 C 179.43 315.96 186.06 319.22 193.98 322.02 C 201.89 324.83 211.25 326.31 219.78 328.22 C 228.31 330.13 238.30 330.94 247.33 331.67 C 256.36 332.40 267.92 331.54 276.78 330.78 C 285.64 330.02 294.71 327.81 302.93 325.93 C 311.14 324.04 319.63 321.01 326.93 317.93 C 334.22 314.84 342.16 312.48 348.25 308.25 C 354.35 304.03 362.64 301.38 367.25 296.25 C 371.87 291.13 382.34 288.83 385.00 283.00
C 385.00 263.42 384.17 243.14 386.00 224.00
C 397.83 234.34 408.22 246.71 420.00 257.00
C 418.57 254.67 416.28 252.57 414.00 251.00
C 423.38 234.72 434.11 218.39 439.00 200.00
C 417.67 200.00 396.33 200.00 375.00 200.00
C 369.70 202.31 368.76 213.78 363.75 217.75 C 358.73 221.71 355.76 228.81 350.25 233.25 C 344.74 237.69 340.01 243.02 333.92 246.92 C 327.83 250.82 322.72 254.58 315.92 257.92 C 309.13 261.27 301.84 263.71 294.32 266.32 C 286.80 268.94 278.37 269.97 270.00 271.00 C 261.63 272.03 250.15 272.36 241.78 271.22 C 233.41 270.08 224.92 269.15 217.32 266.68 C 209.73 264.20 202.72 261.34 195.78 258.22 C 188.84 255.11 183.92 251.05 177.75 247.25 C 171.58 243.44 166.84 238.14 161.25 233.75 C 155.66 229.36 152.88 222.15 147.75 218.25 C 142.61 214.36 141.31 202.32 136.00 200.00
C 124.00 200.00 112.00 200.00 100.00 200.00
C 88.67 200.00 77.33 200.00 66.00 200.00
C 68.35 206.53 70.29 213.47 73.23 219.77 C 76.17 226.07 78.99 231.33 82.70 237.30 C 86.40 243.28 88.27 248.06 93.23 253.77 C 98.19 259.48 85.42 262.93 85.00 268.00 Z"/>
</g>
<g fill="#857A73" fill-opacity="1.00" stroke="None">
<path d="
M 375.00 200.00 
C 370.00 200.00 365.00 200.00 360.00 200.00
C 356.00 200.00 352.00 200.00 348.00 200.00
C 342.87 202.34 340.99 212.94 335.25 216.25 C 329.51 219.56 326.16 225.73 320.08 229.08 C 314.00 232.43 309.10 236.40 302.22 239.22 C 295.35 242.05 288.29 244.76 280.67 246.67 C 273.05 248.59 263.34 248.90 255.00 249.00 C 246.66 249.10 237.21 248.26 229.67 246.33 C 222.13 244.40 214.79 241.95 208.08 238.92 C 201.36 235.90 196.24 232.18 190.25 228.75 C 184.26 225.33 180.88 219.10 175.25 215.75 C 169.62 212.40 168.09 202.33 163.00 200.00
C 154.00 200.00 145.00 200.00 136.00 200.00
C 141.31 202.32 142.61 214.36 147.75 218.25 C 152.88 222.15 155.66 229.36 161.25 233.75 C 166.84 238.14 171.58 243.44 177.75 247.25 C 183.92 251.05 188.84 255.11 195.78 258.22 C 202.72 261.34 209.73 264.20 217.32 266.68 C 224.92 269.15 233.41 270.08 241.78 271.22 C 250.15 272.36 261.63 272.03 270.00 271.00 C 278.37 269.97 286.80 268.94 294.32 266.32 C 301.84 263.71 309.13 261.27 315.92 257.92 C 322.72 254.58 327.83 250.82 333.92 246.92 C 340.01 243.02 344.74 237.69 350.25 233.25 C 355.76 228.81 358.73 221.71 363.75 217.75 C 368.76 213.78 369.70 202.31 375.00 200.00 Z"/>
</g>
<g fill="#FAFAFA" fill-opacity="1.00" stroke="None">
<path d="
M 85.00 268.00 
C 84.57 273.17 96.41 280.02 99.75 284.25 C 103.10 288.48 110.79 296.41 115.25 299.75 C 119.71 303.09 125.59 314.16 131.00 315.00
C 133.33 285.32 131.33 253.50 132.00 223.00
C 115.27 235.91 101.26 253.89 85.00 268.00 Z"/>
</g>
<g fill="#B1AAA6" fill-opacity="1.00" stroke="None">
<path d="
M 385.00 283.00 
C 385.64 294.25 383.70 306.17 386.00 317.00
C 393.00 309.42 402.94 302.56 409.25 294.25 C 415.55 285.94 427.44 280.32 432.00 271.00
C 414.63 283.13 402.94 303.37 386.00 316.00
C 386.00 285.67 386.00 255.33 386.00 225.00
C 401.83 239.34 416.21 255.71 432.00 270.00
C 429.69 265.28 423.46 261.05 420.00 257.00
C 408.22 246.71 397.83 234.34 386.00 224.00
C 384.17 243.14 385.00 263.42 385.00 283.00 Z"/>
</g>
<g fill="#FEFEFE" fill-opacity="1.00" stroke="None">
<path d="
M 432.00 271.00 
C 432.00 271.00 432.20 270.40 432.00 270.00
C 416.21 255.71 401.83 239.34 386.00 225.00
C 386.00 255.33 386.00 285.67 386.00 316.00
C 402.94 303.37 414.63 283.13 432.00 271.00 Z"/>
</g>
<g fill="#5F634B" fill-opacity="1.00" stroke="None">
<path d="
M 42.00 340.00 
C 90.27 344.36 139.63 336.73 188.00 340.00
C 185.11 335.87 173.46 340.20 168.00 339.00 C 162.54 337.80 153.30 339.53 147.00 339.00 C 140.70 338.47 132.68 339.22 126.00 339.00 C 119.32 338.78 111.85 339.05 105.00 339.00 C 98.15 338.95 90.92 338.92 84.00 339.00 C 77.08 339.08 69.94 338.74 63.00 339.00 C 56.06 339.26 48.92 338.37 42.00 339.00
C 42.00 339.00 42.00 339.50 42.00 340.00 Z"/>
</g>
<g fill="#75674B" fill-opacity="1.00" stroke="None">
<path d="
M 327.00 340.00 
C 374.05 336.82 422.05 344.24 469.00 340.00
C 469.00 340.00 469.00 339.50 469.00 339.00
C 462.18 338.38 454.81 339.28 448.00 339.00 C 441.19 338.72 434.78 339.08 428.00 339.00 C 421.22 338.92 413.71 338.96 407.00 339.00 C 400.29 339.04 393.52 338.79 387.00 339.00 C 380.48 339.21 372.17 338.52 366.00 339.00 C 359.83 339.48 351.27 337.87 346.00 339.00 C 340.73 340.13 329.81 335.99 327.00 340.00 Z"/>
</g>
<g fill="#09A709" fill-opacity="1.00" stroke="None">
<path d="
M 42.00 480.00 
C 90.67 480.00 139.33 480.00 188.00 480.00
C 188.00 455.67 188.00 431.33 188.00 407.00
C 188.00 401.50 188.18 395.45 188.00 390.00 C 187.82 384.55 188.47 378.25 188.00 373.00 C 187.53 367.75 189.07 360.78 188.00 356.00 C 186.93 351.22 190.57 343.68 188.00 340.00
C 139.63 336.73 90.27 344.36 42.00 340.00
C 42.00 386.67 42.00 433.34 42.00 480.00 Z"/>
</g>
<g fill="#DFC809" fill-opacity="1.00" stroke="None">
<path d="
M 327.00 406.00 
C 327.00 430.66 327.00 455.34 327.00 480.00
C 374.33 480.00 421.67 480.00 469.00 480.00
C 466.88 456.90 469.80 433.21 469.00 410.00 C 468.20 386.79 469.00 363.24 469.00 340.00
C 422.05 344.24 374.05 336.82 327.00 340.00
C 324.39 343.73 328.24 352.35 327.00 357.00 C 325.76 361.65 327.51 367.88 327.00 373.00 C 326.49 378.12 327.21 384.72 327.00 390.00 C 326.79 395.28 327.00 400.71 327.00 406.00 Z"/>
</g>
<g fill="#FEFEFE" fill-opacity="1.00" stroke="None">
<path d="
M 212.00 396.00 
C 227.33 410.50 242.55 425.71 257.00 441.00
C 273.75 428.07 287.79 410.06 304.00 396.00
C 274.47 394.33 241.60 394.33 212.00 396.00 Z"/>
</g>
<g fill="#9F9791" fill-opacity="1.00" stroke="None">
<path d="
M 240.00 425.00 
C 246.02 430.15 251.86 436.06 257.00 442.00
C 262.67 439.97 265.84 433.13 271.00 430.00
C 282.04 418.96 293.10 407.27 304.00 396.00
C 287.79 410.06 273.75 428.07 257.00 441.00
C 242.55 425.71 227.33 410.50 212.00 396.00
C 221.18 405.56 230.58 415.58 240.00 425.00 Z"/>
</g>
<g fill="#5B4C43" fill-opacity="1.00" stroke="None">
<path d="
M 271.00 430.00 
C 265.84 433.13 262.67 439.97 257.00 442.00
C 251.86 436.06 246.02 430.15 240.00 425.00
C 232.78 418.83 227.93 411.89 217.67 412.33 C 207.41 412.77 197.93 407.93 188.00 407.00
C 188.00 431.33 188.00 455.67 188.00 480.00
C 234.33 480.00 280.67 480.00 327.00 480.00
C 327.00 455.34 327.00 430.66 327.00 406.00
C 317.04 409.10 303.16 410.30 293.22 412.22 C 283.28 414.14 278.47 423.62 271.00 430.00 Z"/>
</g>
<g fill="#000000" fill-opacity="0.16" stroke="None">
<path d="
M 477.00 480.00 
C 475.05 480.57 472.04 480.00 470.00 480.00
C 457.54 487.14 438.81 480.09 424.00 482.00 C 409.19 483.91 391.46 481.13 376.00 482.00 C 360.54 482.87 343.75 481.60 328.00 482.00 C 312.25 482.40 295.88 481.81 280.00 482.00 C 264.12 482.19 247.93 481.88 232.00 482.00 C 216.07 482.12 199.93 481.88 184.00 482.00 C 168.07 482.12 151.89 481.81 136.00 482.00 C 120.11 482.19 103.77 481.60 88.00 482.00 C 72.23 482.40 56.56 481.98 42.00 480.00
C 39.82 479.70 37.11 480.62 35.00 480.00
C 48.91 493.77 74.58 483.72 94.00 486.00 C 113.42 488.28 138.43 485.05 159.00 486.00 C 179.57 486.95 203.01 485.75 224.00 486.00 C 244.99 486.25 268.03 486.27 289.00 486.00 C 309.97 485.73 333.52 486.97 354.00 486.00 C 374.48 485.03 399.81 488.33 419.00 486.00 C 438.19 483.67 463.78 494.02 477.00 480.00 Z"/>
</g>
<g fill="#000000" fill-opacity="0.26" stroke="None">
<path d="
M 470.00 480.00 
C 470.00 480.00 469.50 480.00 469.00 480.00
C 421.67 480.00 374.33 480.00 327.00 480.00
C 280.67 480.00 234.33 480.00 188.00 480.00
C 139.33 480.00 90.67 480.00 42.00 480.00
C 56.56 481.98 72.23 482.40 88.00 482.00 C 103.77 481.60 120.11 482.19 136.00 482.00 C 151.89 481.81 168.07 482.12 184.00 482.00 C 199.93 481.88 216.07 482.12 232.00 482.00 C 247.93 481.88 264.12 482.19 280.00 482.00 C 295.88 481.81 312.25 482.40 328.00 482.00 C 343.75 481.60 360.54 482.87 376.00 482.00 C 391.46 481.13 409.19 483.91 424.00 482.00 C 438.81 480.09 457.54 487.14 470.00 480.00 Z"/>
</g>
</svg>